<?xml version="1.0" encoding="UTF-8"?>
<svg width="800" height="600" viewBox="0 0 800 600" xmlns="http://www.w3.org/2000/svg">
  <defs>
    <linearGradient id="bg" x1="0%" y1="0%" x2="100%" y2="100%">
      <stop offset="0%" stop-color="#FF8C00" stop-opacity="0.3"/>
      <stop offset="100%" stop-color="#8B4513" stop-opacity="0.5"/>
    </linearGradient>
  </defs>
  <rect width="800" height="600" fill="url(#bg)"/>
  
  <!-- Mobile Phone Outline -->
  <rect x="280" y="100" width="240" height="400" rx="20" fill="#1E1E1E" />
  <rect x="290" y="120" width="220" height="360" rx="10" fill="#333" />
  
  <!-- App UI Elements -->
  <!-- Header -->
  <rect x="290" y="120" width="220" height="50" fill="#FF6B00" />
  <circle cx="310" cy="145" r="10" fill="#fff" />
  <rect x="330" y="140" width="120" height="10" rx="5" fill="#fff" />
  <rect x="480" y="140" width="20" height="10" rx="5" fill="#fff" />
  
  <!-- Food Items -->
  <rect x="300" y="180" width="80" height="80" rx="10" fill="#555" />
  <rect x="390" y="180" width="110" height="30" rx="5" fill="#666" />
  <rect x="390" y="220" width="80" height="10" rx="5" fill="#888" />
  <rect x="390" y="240" width="60" height="10" rx="5" fill="#888" />
  
  <rect x="300" y="270" width="80" height="80" rx="10" fill="#555" />
  <rect x="390" y="270" width="110" height="30" rx="5" fill="#666" />
  <rect x="390" y="310" width="80" height="10" rx="5" fill="#888" />
  <rect x="390" y="330" width="60" height="10" rx="5" fill="#888" />
  
  <rect x="300" y="360" width="80" height="80" rx="10" fill="#555" />
  <rect x="390" y="360" width="110" height="30" rx="5" fill="#666" />
  <rect x="390" y="400" width="80" height="10" rx="5" fill="#888" />
  <rect x="390" y="420" width="60" height="10" rx="5" fill="#888" />
  
  <!-- Bottom Navigation -->
  <rect x="290" y="450" width="220" height="30" fill="#333" />
  <circle cx="325" cy="465" r="8" fill="#FF6B00" />
  <circle cx="400" cy="465" r="8" fill="#777" />
  <circle cx="475" cy="465" r="8" fill="#777" />
  
  <!-- Plate Icon -->
  <circle cx="400" cy="270" r="60" fill="none" stroke="#FF6B00" stroke-width="3" />
  <circle cx="400" cy="270" r="40" fill="none" stroke="#FF6B00" stroke-width="2" />
  <rect x="375" y="260" width="50" height="5" rx="2" fill="#FF6B00" />
  <rect x="385" y="275" width="30" height="5" rx="2" fill="#FF6B00" />
</svg>