<?xml version="1.0" encoding="UTF-8"?>
<svg width="800" height="600" viewBox="0 0 800 600" xmlns="http://www.w3.org/2000/svg">
  <defs>
    <linearGradient id="bg" x1="0%" y1="0%" x2="100%" y2="100%">
      <stop offset="0%" stop-color="#22C55E" stop-opacity="0.3"/>
      <stop offset="100%" stop-color="#059669" stop-opacity="0.5"/>
    </linearGradient>
  </defs>
  <rect width="800" height="600" fill="url(#bg)"/>
  
  <!-- Document Symbols -->
  <rect x="150" y="150" width="120" height="150" rx="5" fill="#EEE" />
  <rect x="170" y="170" width="80" height="10" rx="2" fill="#AAA" />
  <rect x="170" y="190" width="80" height="10" rx="2" fill="#AAA" />
  <rect x="170" y="210" width="60" height="10" rx="2" fill="#AAA" />
  <rect x="170" y="230" width="80" height="10" rx="2" fill="#AAA" />
  <rect x="170" y="250" width="40" height="10" rx="2" fill="#AAA" />
  <rect x="170" y="270" width="70" height="10" rx="2" fill="#AAA" />
  
  <rect x="150" y="320" width="120" height="150" rx="5" fill="#EEE" />
  <rect x="170" y="340" width="80" height="10" rx="2" fill="#AAA" />
  <rect x="170" y="360" width="80" height="10" rx="2" fill="#AAA" />
  <rect x="170" y="380" width="60" height="10" rx="2" fill="#AAA" />
  <rect x="170" y="400" width="80" height="10" rx="2" fill="#AAA" />
  <rect x="170" y="420" width="40" height="10" rx="2" fill="#AAA" />
  <rect x="170" y="440" width="70" height="10" rx="2" fill="#AAA" />
  
  <!-- RAG Pipeline Flow -->
  <rect x="350" y="200" width="150" height="200" rx="10" fill="#222" />
  <text x="380" y="230" font-family="Arial" font-size="16" fill="#22C55E" font-weight="bold">RAG Pipeline</text>
  
  <!-- Pipeline Stages -->
  <rect x="365" y="250" width="120" height="25" rx="5" fill="#333" />
  <text x="375" y="268" font-family="Arial" font-size="12" fill="#FFF">Retrieval</text>
  
  <rect x="365" y="290" width="120" height="25" rx="5" fill="#333" />
  <text x="375" y="308" font-family="Arial" font-size="12" fill="#FFF">Augmentation</text>
  
  <rect x="365" y="330" width="120" height="25" rx="5" fill="#333" />
  <text x="375" y="348" font-family="Arial" font-size="12" fill="#FFF">Generation</text>
  
  <!-- Connection Arrows -->
  <line x1="270" y1="200" x2="350" y2="250" stroke="#22C55E" stroke-width="2" />
  <line x1="270" y1="400" x2="350" y2="350" stroke="#22C55E" stroke-width="2" />
  
  <!-- Output Documents/Search Results -->
  <rect x="580" y="150" width="120" height="150" rx="5" fill="#EEE" />
  <rect x="600" y="170" width="80" height="10" rx="2" fill="#22C55E" />
  <rect x="600" y="190" width="80" height="10" rx="2" fill="#AAA" />
  <rect x="600" y="210" width="60" height="10" rx="2" fill="#22C55E" />
  <rect x="600" y="230" width="80" height="10" rx="2" fill="#AAA" />
  <rect x="600" y="250" width="40" height="10" rx="2" fill="#22C55E" />
  <rect x="600" y="270" width="70" height="10" rx="2" fill="#AAA" />
  
  <!-- AI Chat Bubble -->
  <rect x="580" y="320" width="120" height="150" rx="20" fill="#22C55E" opacity="0.8" />
  <rect x="600" y="350" width="80" height="10" rx="2" fill="#FFF" />
  <rect x="600" y="370" width="60" height="10" rx="2" fill="#FFF" />
  <rect x="600" y="390" width="70" height="10" rx="2" fill="#FFF" />
  <rect x="600" y="410" width="40" height="10" rx="2" fill="#FFF" />
  
  <!-- Connection Arrows to Output -->
  <line x1="500" y1="250" x2="580" y2="200" stroke="#22C55E" stroke-width="2" />
  <line x1="500" y1="350" x2="580" y2="400" stroke="#22C55E" stroke-width="2" />
  
  <!-- Data Flow Icons -->
  <circle cx="310" cy="200" r="15" fill="#222" />
  <circle cx="310" cy="400" r="15" fill="#222" />
  <circle cx="540" cy="250" r="15" fill="#222" />
  <circle cx="540" cy="350" r="15" fill="#222" />
  
  <!-- Langchain Label -->
  <rect x="320" y="450" width="160" height="40" rx="20" fill="#222" />
  <text x="350" y="475" font-family="Arial" font-size="16" font-weight="bold" fill="#22C55E">LANGCHAIN</text>
</svg>